<?xml version="1.0" encoding="utf-8"?>
<!-- Generator: Adobe Illustrator 16.0.0, SVG Export Plug-In . SVG Version: 6.00 Build 0)  -->
<!DOCTYPE svg PUBLIC "-//W3C//DTD SVG 1.1//EN" "http://www.w3.org/Graphics/SVG/1.1/DTD/svg11.dtd">
<svg version="1.1" id="Layer_1" xmlns="http://www.w3.org/2000/svg" xmlns:xlink="http://www.w3.org/1999/xlink" x="0px" y="0px"
	 width="20px" height="20px" viewBox="0 0 500 500" enable-background="new 0 0 500 500" xml:space="preserve">
<g id="NC5ibe_1_" display="none">
	<g display="inline">
		<path d="M220.644,94.632c0,11.333,0,22.667,0,34c-7.31-0.002-14.619-0.031-21.929,0.001c-4.837,0.021-7.722,2.937-8.011,7.304
			c-0.49,7.402-0.135,14.861-0.135,22.695c10.176,0,20.125,0,30.075,0c0,1.333,0,2.667,0,4c-1.242,9.842-2.484,19.685-3.798,30.097
			c-8.887,0-17.609,0-26.902,0c0,32.815,0,65.03,0,97.172c-13.64,0-26.683,0-40.301,0c0-32.64,0-64.834,0-97.269
			c-7.054,0-13.527,0-20,0c0-11.333,0-22.667,0-34c6.587,0,13.174,0,20.251,0c0-2.496-0.044-4.458,0.008-6.419
			c0.217-8.14,0-16.325,0.793-24.41c1.849-18.849,13.333-30.646,32.092-32.223C195.344,94.524,208.021,94.897,220.644,94.632z"/>
		<path fill-rule="evenodd" clip-rule="evenodd" fill="none" d="M129.644,192.632c6.473,0,12.945,0,20,0c0,32.435,0,64.629,0,97.269
			c13.618,0,26.661,0,40.301,0c0-32.142,0-64.357,0-97.172c9.292,0,18.015,0,26.902,0c1.314-10.412,2.556-20.254,3.798-30.097
			c0,47.667,0,95.333,0,143c-30.333,0-60.667,0-91,0C129.644,267.965,129.644,230.298,129.644,192.632z"/>
		<path fill-rule="evenodd" clip-rule="evenodd" fill="none" d="M220.644,94.632c-12.623,0.266-25.299-0.108-37.856,0.948
			c-18.759,1.577-30.243,13.374-32.092,32.223c-0.793,8.085-0.576,16.27-0.793,24.41c-0.052,1.961-0.008,3.924-0.008,6.419
			c-7.077,0-13.664,0-20.251,0c0-21.931,0-43.862,0-66c29.67,0,59.342-0.013,89.012,0.083
			C219.32,92.717,219.981,93.965,220.644,94.632z"/>
		<path fill-rule="evenodd" clip-rule="evenodd" fill="none" d="M220.644,158.632c-9.949,0-19.898,0-30.075,0
			c0-7.834-0.355-15.293,0.135-22.695c0.29-4.367,3.174-7.282,8.011-7.304c7.31-0.032,14.619-0.003,21.929-0.001
			C220.644,138.632,220.644,148.632,220.644,158.632z"/>
	</g>
</g>
<g display="none">
	<path display="inline" fill="none" d="M45.74,465.146c0-136.479,0-272.959,0-409.439c136.479,0,272.959,0,409.439,0
		c0,136.479,0,272.959,0.001,409.439C318.699,465.146,182.22,465.146,45.74,465.146z M248.097,220.807
		c-43.747-3.05-79.609-21.377-107.959-54.805c-6.768,11.995-8.709,24.678-5.72,38c2.997,13.358,10.455,23.845,21.809,31.915
		c-8.532-0.361-16.202-2.556-23.432-6.481c-0.892,20.395,13.112,45.582,41.413,51.989c-0.222,0.13-0.375,0.273-0.551,0.315
		c-7.43,1.777-14.914,2.035-22.543,0.81c8.505,22.368,24.667,34.481,48.661,36.483c-22.889,17.302-48.558,24.35-77.069,21.749
		c5.267,3.063,10.492,6.078,15.904,8.708c17.446,8.474,35.912,13.157,55.258,14.33c12.094,0.733,24.135,0.047,36.081-1.946
		c14.14-2.359,27.684-6.659,40.502-13.103c25.251-12.69,44.863-31.455,59.416-55.582c8.729-14.469,14.884-29.983,18.592-46.477
		c1.571-6.987,2.73-14.042,3.18-21.178c0.338-5.38,0.263-10.789,0.3-16.185c0.007-0.942,0.289-1.506,1.037-2.058
		c8.622-6.359,16.063-13.903,22.426-22.516c0.854-1.155,1.653-2.35,2.478-3.526c-9.48,3.885-19.157,6.55-29.281,7.723
		c10.748-6.956,18.256-16.391,22.419-28.772c-0.521,0.274-0.8,0.41-1.068,0.564c-9.803,5.622-20.203,9.664-31.292,11.925
		c-0.829,0.169-1.229-0.111-1.74-0.606c-14.493-14.026-31.625-18.77-51.148-13.908c-12.273,3.057-22.038,10.151-29.311,20.517
		c-7.141,10.18-10.276,21.525-9.361,33.941C247.29,215.255,247.729,217.858,248.097,220.807z"/>
	<path display="inline" fill-rule="evenodd" clip-rule="evenodd" d="M248.097,220.807c-0.368-2.949-0.808-5.552-1.001-8.173
		c-0.915-12.416,2.22-23.761,9.361-33.941c7.272-10.366,17.037-17.46,29.311-20.517c19.523-4.862,36.655-0.119,51.148,13.908
		c0.512,0.495,0.911,0.775,1.74,0.606c11.089-2.262,21.489-6.303,31.292-11.925c0.269-0.154,0.548-0.29,1.068-0.564
		c-4.163,12.382-11.671,21.816-22.419,28.772c10.124-1.172,19.801-3.838,29.281-7.723c-0.824,1.177-1.624,2.371-2.478,3.526
		c-6.362,8.613-13.804,16.157-22.426,22.516c-0.748,0.551-1.03,1.116-1.037,2.058c-0.037,5.396,0.038,10.804-0.3,16.185
		c-0.449,7.136-1.608,14.191-3.18,21.178c-3.708,16.493-9.863,32.008-18.592,46.477c-14.553,24.127-34.165,42.892-59.416,55.582
		c-12.818,6.443-26.363,10.743-40.502,13.103c-11.946,1.993-23.987,2.68-36.081,1.946c-19.346-1.173-37.812-5.856-55.258-14.33
		c-5.412-2.63-10.637-5.645-15.904-8.708c28.511,2.601,54.18-4.447,77.069-21.749c-23.995-2.002-40.156-14.115-48.661-36.483
		c7.63,1.226,15.113,0.968,22.543-0.81c0.177-0.042,0.33-0.186,0.551-0.315c-28.301-6.407-42.305-31.594-41.413-51.989
		c7.23,3.926,14.9,6.121,23.432,6.481c-11.354-8.069-18.812-18.557-21.809-31.915c-2.989-13.322-1.048-26.005,5.72-38
		C168.488,199.429,204.351,217.757,248.097,220.807z"/>
</g>
<g id="ChAyBA_1_" display="none">
	<g display="inline">
		<path fill="none" d="M63.325,458.191c0-138.31,0-276.618,0-414.992c111.745,0,223.508,0,335.373,0c0,138.288,0,276.639,0,414.992
			C286.955,458.191,175.149,458.191,63.325,458.191z M205.979,308.496c4.195,2.848,7.584,5.411,11.219,7.562
			c7.324,4.333,14.379,9.55,22.268,12.408c15.858,5.745,32.316,4.279,48.282,0.014c13.916-3.72,26.28-10.841,37.06-20.542
			c13.771-12.395,23.854-27.292,31.23-44.275c8.168-18.806,12.89-38.322,13.617-58.768c0.596-16.791,0.329-33.517-4.56-49.859
			c-4.111-13.74-10.438-26.243-19.594-37.283c-14.219-17.146-32.183-28.719-52.969-36.508c-16.627-6.231-33.8-9.139-51.348-9.962
			c-8.446-0.396-16.959,0.51-25.436,0.933c-14.235,0.71-27.774,4.573-40.818,9.966c-15.833,6.546-30.164,15.645-42.756,27.351
			c-13.102,12.181-23.559,26.254-30.672,42.749c-4.961,11.504-8.145,23.376-9.403,35.913c-1.796,17.888-1.02,35.422,4.889,52.512
			c7.071,20.454,21.892,32.274,42.423,37.515c0.948,0.241,2.803-0.411,3.232-1.197c5.904-10.789,8.241-21.818,1.305-33.125
			c-6.786-11.062-12.336-22.311-12.516-35.913c-0.21-15.867,2.594-30.837,9.606-44.997c6.78-13.69,16.392-25.132,28.283-34.69
			c15.222-12.235,32.528-20.042,51.711-23.24c13.711-2.286,27.452-1.807,40.975,2.145c16.01,4.678,29.675,13.032,40.561,25.643
			c9.024,10.454,13.376,23.199,15.688,36.489c3.581,20.59,2.403,41.163-2.694,61.403c-3.445,13.679-8.595,26.725-16.746,38.413
			c-12.604,18.069-28.573,29.306-51.918,25.988c-19.345-2.749-28.068-14.704-25.598-33.213c1.102-8.249,2.955-16.444,5.09-24.499
			c2.952-11.135,6.454-22.126,9.792-33.157c3.12-10.312,5.359-20.787,3.987-31.577c-0.468-3.685-2.089-7.43-3.985-10.681
			c-3.791-6.5-10.334-9.351-17.276-11.066c-9.636-2.382-18.582-0.614-26.446,5.589c-13.008,10.261-18.264,24.708-20.76,40.277
			c-2.33,14.535-0.921,28.776,6.125,42.079c0.322,0.608,0.512,1.465,0.363,2.115c-1.743,7.605-3.472,15.217-5.384,22.781
			c-3.177,12.575-6.543,25.104-9.721,37.679c-2.991,11.833-6.191,23.63-8.647,35.577c-2.061,10.021-3.555,20.195-4.638,30.373
			c-1.933,18.154-1.925,36.365-0.08,54.547c0.241,2.367,0.885,4.693,1.437,7.519c1.208-0.705,2.189-1.123,2.988-1.768
			c7.833-6.321,14.395-13.798,19.872-22.224c8.491-13.065,14.719-27.189,18.787-42.187c3.792-13.98,7.083-28.099,10.524-42.173
			C204.29,317.202,204.999,313.214,205.979,308.496z"/>
		<path fill-rule="evenodd" clip-rule="evenodd" d="M205.979,308.496c-0.981,4.718-1.689,8.706-2.65,12.634
			c-3.441,14.074-6.733,28.192-10.524,42.173c-4.067,14.997-10.296,29.121-18.787,42.187c-5.477,8.426-12.038,15.902-19.872,22.224
			c-0.799,0.645-1.78,1.062-2.988,1.768c-0.551-2.825-1.196-5.151-1.437-7.519c-1.845-18.182-1.853-36.393,0.08-54.547
			c1.083-10.178,2.578-20.353,4.638-30.373c2.456-11.947,5.656-23.744,8.647-35.577c3.178-12.575,6.544-25.104,9.721-37.679
			c1.912-7.563,3.641-15.175,5.384-22.781c0.149-0.65-0.041-1.507-0.363-2.115c-7.046-13.303-8.455-27.544-6.125-42.079
			c2.496-15.568,7.752-30.016,20.76-40.277c7.864-6.204,16.81-7.971,26.446-5.589c6.941,1.715,13.485,4.565,17.276,11.066
			c1.896,3.251,3.517,6.997,3.985,10.681c1.373,10.79-0.867,21.266-3.987,31.577c-3.338,11.031-6.84,22.022-9.792,33.157
			c-2.135,8.055-3.988,16.25-5.09,24.499c-2.47,18.509,6.252,30.464,25.598,33.213c23.345,3.317,39.313-7.919,51.918-25.988
			c8.151-11.688,13.301-24.733,16.746-38.413c5.098-20.24,6.275-40.812,2.694-61.403c-2.312-13.29-6.663-26.035-15.688-36.489
			c-10.886-12.61-24.551-20.964-40.561-25.643c-13.523-3.952-27.264-4.43-40.975-2.145c-19.183,3.198-36.489,11.005-51.711,23.24
			c-11.891,9.558-21.502,21-28.283,34.69c-7.013,14.16-9.817,29.13-9.606,44.997c0.18,13.602,5.73,24.85,12.516,35.913
			c6.936,11.306,4.599,22.335-1.305,33.125c-0.43,0.786-2.284,1.438-3.232,1.197c-20.532-5.24-35.352-17.061-42.423-37.515
			c-5.909-17.09-6.685-34.624-4.889-52.512c1.259-12.536,4.442-24.409,9.403-35.913c7.113-16.495,17.57-30.567,30.672-42.749
			c12.592-11.707,26.922-20.805,42.756-27.351c13.044-5.393,26.583-9.256,40.818-9.966c8.477-0.423,16.99-1.329,25.436-0.933
			c17.548,0.823,34.721,3.731,51.348,9.962c20.786,7.789,38.75,19.363,52.969,36.508c9.155,11.04,15.482,23.543,19.594,37.283
			c4.889,16.342,5.155,33.068,4.56,49.859c-0.728,20.446-5.449,39.962-13.617,58.768c-7.376,16.983-17.459,31.881-31.23,44.275
			c-10.779,9.701-23.144,16.822-37.06,20.542c-15.966,4.266-32.424,5.731-48.282-0.014c-7.889-2.858-14.944-8.075-22.268-12.408
			C213.564,313.907,210.174,311.344,205.979,308.496z"/>
	</g>
</g>
<path fill-rule="evenodd" clip-rule="evenodd" d="M250.278,482.69c-36.682,0.008-73.369,0.34-110.047-0.061
	c-73.053-0.803-122.131-50.115-122.327-122.868c-0.203-74.652-0.178-149.307-0.009-223.958
	C18.063,62.006,67.762,12.168,141.514,11.949c74.008-0.22,148.02-0.258,222.027,0.01c73.744,0.27,122.991,50.158,123.026,124.13
	c0.038,74.652,0.069,149.308-0.006,223.96c-0.076,71.975-48.53,121.496-120.442,122.536
	C327.514,483.145,288.893,482.683,250.278,482.69z M357.388,213.423c16.319,54.182,9.397,101.579-36.92,136.208
	c-35.396,26.46-75.87,30.219-114.79,9.766c-59.914-31.491-72.03-83.794-54.304-145.626c-30.569,0-59.214,0-89.677,0
	c0,50.233-0.229,99.041,0.066,147.844c0.269,44.835,28.949,77.101,73.414,77.964c77.851,1.518,155.771,1.506,233.622,0.054
	c45.779-0.852,73.763-32.746,73.93-79.118c0.092-25.101,0.018-50.204,0.018-75.305c0-23.588,0-47.175,0-71.786
	C413.241,213.423,386.438,213.423,357.388,213.423z M442.746,169.515c0-13.474,0.025-23.711-0.006-33.951
	c-0.146-49.357-29.271-80.019-78.553-80.465c-74.638-0.675-149.287-0.299-223.932-0.083c-21.259,0.061-40.537,6.187-56.219,21.442
	c-26.894,26.161-23.651,58.637-20.779,93.174c41.823,0,82.226,0.196,122.62-0.267c4.681-0.055,9.474-3.49,13.957-5.845
	c35.576-18.695,71.314-19.011,107.312-1.295c5.156,2.536,10.379,6.889,15.622,6.969
	C361.845,169.787,400.938,169.515,442.746,169.515z M255.496,306.161c24.483-0.42,45.584-21.498,45.763-45.724
	c0.185-24.786-22.388-47.062-47.189-46.565c-25.424,0.508-46.133,22.506-45.229,48.044
	C209.723,286.938,230.449,306.592,255.496,306.161z"/>
<path fill-rule="evenodd" clip-rule="evenodd" d="M375.462,147.604c-31.526-0.016-31.526-0.016-31.514-33.791
	c0.012-32.402,0.012-32.402,33.389-32.388c32.026,0.016,32.026,0.016,31.987,36.346
	C409.292,147.616,409.292,147.616,375.462,147.604z"/>
<g display="none">
	<path display="inline" fill="none" d="M5.029,460.423c0-148,0-296,0-444c148,0,296,0,444,0c0,148,0,296,0,444
		C301.029,460.423,153.029,460.423,5.029,460.423z M88.319,133.793c0,69.793,0,139.45,0,209.148c92.503,0,184.939,0,277.367,0
		c0-69.759,0-139.419,0-209.148C273.221,133.793,180.815,133.793,88.319,133.793z"/>
	<path display="inline" fill-rule="evenodd" clip-rule="evenodd" d="M88.319,133.793c92.496,0,184.902,0,277.367,0
		c0,69.729,0,139.389,0,209.148c-92.428,0-184.864,0-277.367,0C88.319,273.243,88.319,203.586,88.319,133.793z M334.397,153.553
		c-0.119-0.124-0.239-0.248-0.358-0.373c-70.844,0-141.688,0-212.704,0c0.338,0.363,0.547,0.599,0.768,0.823
		c17.854,18.084,35.706,36.169,53.563,54.25c14.208,14.384,28.426,28.757,42.632,43.144c4.981,5.044,13.461,5.09,18.447,0.069
		c13.678-13.772,27.352-27.549,41.032-41.321c16.421-16.532,32.839-33.067,49.279-49.58
		C329.442,158.168,331.947,155.888,334.397,153.553z M263.053,252.151c-0.386,0.533-0.64,1-0.999,1.363
		c-3.981,4.034-7.916,8.116-11.986,12.059c-7.042,6.822-15.572,9.633-25.276,8.877c-7.675-0.598-14.364-3.519-19.857-8.982
		c-3.227-3.209-6.404-6.468-9.599-9.71c-1.278-1.297-2.543-2.606-3.843-3.939c-23.456,23.962-46.768,47.777-70.204,71.719
		c70.6,0,140.939,0,211.485,0C309.517,299.725,286.414,276.07,263.053,252.151z M107.784,167.12c0,47.591,0,94.905,0,142.465
		c23.448-23.952,46.73-47.734,70.042-71.548C154.471,214.39,131.209,190.838,107.784,167.12z M346.31,168.688
		c-23.238,23.402-46.28,46.607-69.391,69.88c23.09,23.639,46.15,47.248,69.391,71.042C346.31,262.534,346.31,215.765,346.31,168.688
		z"/>
	<path display="inline" fill-rule="evenodd" clip-rule="evenodd" fill="none" d="M334.397,153.553
		c-2.45,2.334-4.955,4.615-7.342,7.012c-16.44,16.513-32.858,33.048-49.279,49.58c-13.68,13.771-27.354,27.548-41.032,41.321
		c-4.985,5.021-13.466,4.975-18.447-0.069c-14.206-14.386-28.424-28.76-42.632-43.144c-17.857-18.08-35.709-36.166-53.563-54.25
		c-0.221-0.224-0.429-0.459-0.768-0.823c71.016,0,141.86,0,212.704,0C334.158,153.305,334.278,153.429,334.397,153.553z"/>
	<path display="inline" fill-rule="evenodd" clip-rule="evenodd" fill="none" d="M263.053,252.151
		c23.361,23.919,46.464,47.573,69.721,71.386c-70.546,0-140.885,0-211.485,0c23.436-23.941,46.748-47.757,70.204-71.719
		c1.3,1.333,2.565,2.643,3.843,3.939c3.195,3.242,6.373,6.501,9.599,9.71c5.494,5.464,12.183,8.385,19.857,8.982
		c9.705,0.756,18.234-2.055,25.276-8.877c4.07-3.942,8.004-8.024,11.986-12.059C262.413,253.151,262.667,252.685,263.053,252.151z"
		/>
	<path display="inline" fill-rule="evenodd" clip-rule="evenodd" fill="none" d="M107.784,167.12
		c23.426,23.718,46.688,47.27,70.042,70.917c-23.312,23.813-46.594,47.596-70.042,71.548
		C107.784,262.025,107.784,214.711,107.784,167.12z"/>
	<path display="inline" fill-rule="evenodd" clip-rule="evenodd" fill="none" d="M346.31,168.688c0,47.077,0,93.847,0,140.922
		c-23.24-23.794-46.301-47.402-69.391-71.042C300.029,215.295,323.071,192.09,346.31,168.688z"/>
</g>
<g display="none">
	<path display="inline" fill="none" d="M1,533C1,366,1,199,1,32c166.667,0,333.333,0,500,0c0,167,0,334,0,501
		C334.333,533,167.667,533,1,533z M253.429,160.204c-1.095-2.32-1.802-3.812-2.504-5.307c-10.544-22.44-24.476-42.302-43.775-58.185
		c-50.005-41.153-118.415-34.811-158.26,16.139c-30.608,39.139-38.05,84.722-30.023,132.81
		c5.165,30.939,23.463,54.607,46.632,74.789c20.329,17.708,43.388,31.43,66.374,45.222c22.901,13.741,45.041,28.512,64.702,46.692
		c22.576,20.876,43.783,42.888,56.876,70.828c4.114-6.767,8.068-14.069,12.8-20.827c4.86-6.944,10.229-13.578,15.811-19.966
		c29.08-33.276,63.066-60.623,100.82-83.492c20.936-12.682,41.646-25.768,60.149-41.972c21.253-18.612,37.532-40.46,44.419-68.398
		c5.027-20.397,4.43-40.97,1.452-61.526c-4.287-29.603-14.567-56.723-35.168-79.008c-24.763-26.788-55.672-38.956-91.956-35.646
		c-29.885,2.726-54.8,16.428-75.634,37.803C272.137,124.529,261.799,141.312,253.429,160.204z"/>
	<path display="inline" fill-rule="evenodd" clip-rule="evenodd" d="M253.429,160.204c8.37-18.892,18.708-35.675,32.715-50.044
		c20.834-21.375,45.749-35.077,75.634-37.803c36.284-3.31,67.193,8.857,91.956,35.646c20.601,22.285,30.881,49.405,35.168,79.008
		c2.978,20.556,3.575,41.129-1.452,61.526c-6.887,27.938-23.166,49.786-44.419,68.398c-18.503,16.204-39.214,29.29-60.149,41.972
		c-37.754,22.869-71.74,50.216-100.82,83.492c-5.582,6.388-10.95,13.021-15.811,19.966c-4.731,6.758-8.686,14.061-12.8,20.827
		c-13.094-27.94-34.301-49.952-56.876-70.828c-19.662-18.181-41.801-32.951-64.702-46.692
		c-22.986-13.792-46.045-27.514-66.374-45.222c-23.169-20.182-41.467-43.85-46.632-74.789c-8.027-48.088-0.585-93.671,30.023-132.81
		c39.845-50.95,108.255-57.292,158.26-16.139c19.299,15.883,33.231,35.745,43.775,58.185
		C251.627,156.392,252.334,157.884,253.429,160.204z"/>
</g>
</svg>
